<svg xmlns="http://www.w3.org/2000/svg" width="800" height="400" viewBox="0 0 800 400">
  <rect width="800" height="400" fill="#1A4D3A"/>
  <rect x="0" y="0" width="800" height="400" fill="url(#grid3)" opacity="0.07"/>
  <defs>
    <pattern id="grid3" width="40" height="40" patternUnits="userSpaceOnUse">
      <path d="M 40 0 L 0 0 0 40" fill="none" stroke="#C9A84C" stroke-width="0.5"/>
    </pattern>
  </defs>
  <!-- Coin stack -->
  <ellipse cx="370" cy="280" rx="55" ry="16" fill="#C9A84C" opacity="0.9"/>
  <rect x="315" y="248" width="110" height="32" fill="#C9A84C" opacity="0.9"/>
  <ellipse cx="370" cy="248" rx="55" ry="16" fill="#DEC06A" opacity="0.9"/>
  <ellipse cx="370" cy="230" rx="55" ry="16" fill="#C9A84C" opacity="0.85"/>
  <rect x="315" y="198" width="110" height="32" fill="#C9A84C" opacity="0.85"/>
  <ellipse cx="370" cy="198" rx="55" ry="16" fill="#DEC06A" opacity="0.85"/>
  <ellipse cx="370" cy="180" rx="55" ry="16" fill="#C9A84C" opacity="0.8"/>
  <rect x="315" y="148" width="110" height="32" fill="#C9A84C" opacity="0.8"/>
  <ellipse cx="370" cy="148" rx="55" ry="16" fill="#DEC06A" opacity="0.8"/>
  <!-- Arrow up -->
  <polyline points="470,260 470,140 510,140" fill="none" stroke="#DEC06A" stroke-width="4" stroke-linecap="round" stroke-linejoin="round" opacity="0.8"/>
  <polygon points="500,118 510,140 520,118" fill="#DEC06A" opacity="0.8"/>
  <!-- Label -->
  <text x="400" y="340" text-anchor="middle" font-family="Georgia, serif" font-size="18" fill="#C9A84C" opacity="0.8">Инвестиции в Имоти</text>
  <text x="400" y="365" text-anchor="middle" font-family="Georgia, serif" font-size="13" fill="#C9A84C" opacity="0.5">New Key Properties</text>
</svg>
